<svg xmlns:dc="http://purl.org/dc/elements/1.1/" xmlns:cc="http://creativecommons.org/ns#" xmlns:rdf="http://www.w3.org/1999/02/22-rdf-syntax-ns#" xmlns:svg="http://www.w3.org/2000/svg" xmlns="http://www.w3.org/2000/svg" xmlns:sodipodi="http://sodipodi.sourceforge.net/DTD/sodipodi-0.dtd" xmlns:inkscape="http://www.inkscape.org/namespaces/inkscape" viewBox="0 0 32 40.00000125" version="1.1" x="0px" y="0px"><g transform="translate(0,-1020.3622)"><path style="color:#000000;font-style:normal;font-variant:normal;font-weight:normal;font-stretch:normal;font-size:medium;line-height:normal;font-family:sans-serif;text-indent:0;text-align:start;text-decoration:none;text-decoration-line:none;text-decoration-style:solid;text-decoration-color:#000000;letter-spacing:normal;word-spacing:normal;text-transform:none;direction:ltr;block-progression:tb;writing-mode:lr-tb;baseline-shift:baseline;text-anchor:start;white-space:normal;clip-rule:nonzero;display:inline;overflow:visible;visibility:visible;opacity:1;isolation:auto;mix-blend-mode:normal;color-interpolation:sRGB;color-interpolation-filters:linearRGB;solid-color:#000000;solid-opacity:1;fill:#000000;fill-opacity:1;fill-rule:nonzero;stroke:none;stroke-width:0.99999994;stroke-linecap:round;stroke-linejoin:round;stroke-miterlimit:4;stroke-dasharray:none;stroke-dashoffset:0;stroke-opacity:1;color-rendering:auto;image-rendering:auto;shape-rendering:auto;text-rendering:auto;enable-background:accumulate" d="m 18.310509,1020.3661 -0.884766,0.5645 c -2.046839,1.3065 -3.136973,2.4564 -3.537109,3.7715 -0.148358,0.4875 -0.114717,0.9936 -0.0918,1.5019 -0.386484,-0.392 -0.693554,-0.8466 -1.257813,-1.0625 l -0.914059,-0.3496 0.251953,0.9453 c 0.136211,0.512 -0.284591,1.4726 -0.611328,2.6426 -0.261971,0.938 -0.363354,2.0697 0.203125,3.1895 l -1.083984,0 c -0.276131,0 -0.499972,0.2238 -0.5,0.5 1.2e-5,1.8783 1.172779,3.5882 3.007812,4.5175 l 0,1.9512 c 2.8e-5,0.2762 0.223869,0.5 0.5,0.5 l 0.425781,0 0.50586,12.8477 c 0.0087,0.2091 0.146598,0.3906 0.345703,0.4551 0.03112,0.01 0.06317,0.017 0.0957,0.021 0.01367,6e-4 0.02735,6e-4 0.04102,0 l 0.0098,0 0.0059,0 2.357422,0 c 0.272362,1e-4 0.494654,-0.2179 0.5,-0.4902 0,0 0.05542,-2.7707 0.148437,-5.8203 0.08431,-2.764 0.20651,-5.7064 0.332031,-7.0137 l 0.447266,0 c 0.276131,0 0.499972,-0.2239 0.5,-0.5 l 0,-1.9512 c 1.834969,-0.9293 3.007799,-2.6392 3.007812,-4.5175 -2.8e-5,-0.2762 -0.223869,-0.5 -0.5,-0.5 l -0.882812,0 c 0.53325,-0.6526 0.888527,-1.251 1.08789,-1.8203 0.283398,-0.8091 0.251179,-1.5536 0.08398,-2.2071 -0.334364,-1.3069 -1.07594,-2.2829 -1.103516,-3.5352 l -0.01953,-0.8477 -0.732422,0.4258 c -0.349912,0.2035 -0.715623,0.3804 -1.027344,0.6992 -0.268675,0.2748 -0.382364,0.7209 -0.40039,1.1954 -0.313227,-0.4019 -0.671432,-0.8138 -0.736328,-1.0273 -0.234213,-0.7705 0.193694,-2.0301 0.308593,-3.0411 l 0.117188,-1.043 0,0 z m -1.376953,2.2188 c -0.138059,0.6737 -0.229369,1.4146 -0.0039,2.1562 0.223089,0.7342 0.79455,1.1752 1.140624,1.6856 0.344824,0.5085 0.543567,0.976 0.228516,1.8457 -0.0011,0 0.0012,-4e-4 0,0.01 l 0.939453,0.3398 c 7.83e-4,0 -7.78e-4,5e-4 0,-0.01 l 0.002,0 c 0.630893,-1.785 0.385616,-2.0386 0.3125,-3.0175 -0.02688,-0.3584 0.0361,-0.4624 0.183594,-0.6133 0.04465,-0.046 0.17659,-0.1128 0.246094,-0.1621 0.234186,1.1647 0.737899,2.1274 0.953125,2.9687 0.132751,0.5188 0.155629,1.0098 -0.06055,1.627 -0.202232,0.5774 -0.701635,1.3022 -1.515625,2.1543 l -3.359375,0 -3.3125,0 c -0.775915,-1.0259 -0.73322,-1.9398 -0.458984,-2.9219 0.190247,-0.6812 0.429659,-1.3661 0.552734,-2.0606 0.348225,0.265 0.745314,0.483 0.972656,0.8321 0.342758,0.5264 0.483733,1.063 0.50586,1.3242 0.02632,0.086 0.03305,0.1561 0.06055,0.2441 l 0.976563,-0.1484 c 0,-0.043 -0.04996,-0.1022 -0.05273,-0.1465 l 0.0293,0 c -0.497085,-1.5908 -0.727179,-2.7131 -0.427735,-3.6972 0.228645,-0.7515 0.965738,-1.5404 2.087891,-2.4103 z m -5.890625,9.9844 1.113281,0 0.0039,0 0.230469,0 7.427734,0 0.0039,0 1.134765,0 c -0.192794,1.2839 -0.966964,2.4776 -2.36914,3.1621 -1.591839,0.777 -3.583942,0.777 -5.175782,0 -1.402175,-0.6845 -2.176346,-1.8782 -2.36914,-3.1621 z m 2.849609,4.4199 c 1.362766,0.4307 2.852077,0.4307 4.214844,0 l 0,1.0488 -0.404297,0 -3.404297,0 -0.40625,0 z m 0.925781,2.0488 2.361329,0 c -0.145919,1.3971 -0.265364,4.1621 -0.351563,6.9883 -0.08537,2.799 -0.128314,4.9285 -0.136719,5.3398 l -1.388672,0 z"/></g><text x="0" y="47.000001" fill="#000000" font-size="5px" font-weight="bold" font-family="'Helvetica Neue', Helvetica, Arial-Unicode, Arial, Sans-serif">Created by Chameleon Design</text><text x="0" y="52.000001" fill="#000000" font-size="5px" font-weight="bold" font-family="'Helvetica Neue', Helvetica, Arial-Unicode, Arial, Sans-serif">from the Noun Project</text></svg>