<svg xmlns="http://www.w3.org/2000/svg" xmlns:xlink="http://www.w3.org/1999/xlink" version="1.1" x="0px" y="0px" viewBox="0 0 347.647 405.05875000000003" style="enable-background:new 0 0 347.647 324.047;" xml:space="preserve"><g><g><path d="M219.721,65.596c5.979-2.256,15.291-6.685,20.486-14.298c2.49-5.003,3.449-10.733,2.362-16.945    c-0.145-0.833,1.438-1.451,1.848-0.693c1.943,3.59,3.714,7.279,5.77,10.807c1.545,2.653,4.467,5.414,5.482,8.261    c2.143,6.017-0.488,13.155-3.354,18.494c-0.02,0.038-0.047,0.072-0.074,0.105c-0.014,0.025-0.022,0.049-0.039,0.075    c-3.57,5.531-11.12,8.963-17.457,11.611c20.288,4.432,39.166-15.023,40.116-35.578c1.026-22.224-17.595-36.427-34.743-47.349    c-0.455-0.29-3.145,0.192-2.811,0.896c2.637,5.551,3.253,14.463,0.968,20.152c-1.765,4.396-4.485,1.391-6.336-0.701    c-3.02-3.414-6.354-6.21-10.298-8.514c-0.458-0.268-3.104,0.12-2.811,0.896c1.73,4.574,3.936,8.936,5.076,13.715    c1.322,5.549-1.353,9.745-3.461,14.573c-3.491,7.999-4.9,16.98-2.163,25.283C218.654,66.085,219.129,65.819,219.721,65.596z"/><path d="M244.851,146.246c-0.536-0.07-1.087-0.088-1.646-0.046c-0.004,0-0.01,0-0.018,0.001c-0.036,0.002-0.135,0.006-0.349,0.006    c-1.682-0.016-8.674-0.346-17.037-6.445c-7.617-5.582-16.798-16.207-23.831-37.314c7.878-6.298,17.369-13.488,25.507-19.551    c10.242-7.63,18.333-13.469,18.333-13.469s4.168-7.5-7.332-9.166c-5.619,3.549-11.85,8.895-18.128,14.783    c-7.085,6.645-14.228,13.978-20.622,20.226c-1.505-3.748-5.626-5.832-9.6-4.707c-4.251,1.203-6.72,5.626-5.517,9.877    c0.637,2.259,1.305,4.431,1.996,6.534c-1.596,1.171-3.045,2.077-4.298,2.619c-11.166,4.834-0.498,14.668,3.668,7.334    c0.444-0.782,1.479-1.939,2.964-3.38c7.637,19.922,17.688,32.05,27.423,39.138c7.592,5.548,14.762,7.902,19.977,8.874v50.219    c9.407-10.685,29.045-36.01,33.6-65.532H244.851z"/><path d="M308.743,158.324c-13.004-9.697-23.539-11.949-24.388-12.12c-1.14-0.229-2.271-0.198-3.336,0.042h-1.18    c-7.066,34.657,3.513,53.194,10.594,61.257V165.62c2.848,1.492,6.17,3.521,9.744,6.288c10.407,8.081,23.006,22.235,31.914,47.657    c1.151,3.298,4.245,5.364,7.552,5.364c0.876,0,1.766-0.145,2.639-0.45c4.172-1.457,6.373-6.021,4.915-10.191    C337.059,185.196,321.75,167.995,308.743,158.324z"/><path d="M273.477,239.693c4.218,2.604,8.575,7.672,12.269,14.569c5.961,10.943,9.969,25.795,12.188,37.657    c1.126,5.941,1.847,11.148,2.277,14.828c0.216,1.839,0.361,3.296,0.45,4.271c0.043,0.487,0.073,0.855,0.093,1.091    c0.019,0.234,0.021,0.295,0.023,0.295c0.475,6.887,6.441,12.085,13.33,11.611c6.887-0.477,12.086-6.443,11.611-13.33h-0.002    c-0.063-0.545-1.536-22.918-8.921-46.405c-3.751-11.761-8.894-23.898-17.024-34.008c-2.199-2.715-4.65-5.278-7.372-7.595    C289.195,229.294,283.402,237.146,273.477,239.693z"/><path d="M235.256,223.46c-6.057,5.385-10.687,12.019-14.438,18.917c-7.959,14.814-12.2,31.577-14.757,44.888    c-2.517,13.291-3.196,23.082-3.221,23.422c-0.476,6.887,4.723,12.854,11.609,13.33c0.293,0.021,0.583,0.03,0.872,0.03    c6.512,0,12.005-5.045,12.461-11.64c-0.003-0.002,0-0.021,0.011-0.151c0.125-1.993,1.977-23.033,8.412-42.31    c3.16-9.627,7.538-18.704,12.484-24.513c2.458-2.926,4.98-5.023,7.467-6.356c0.042-0.022,0.083-0.04,0.125-0.062    C246.162,235.911,239.214,228.735,235.256,223.46z"/><path d="M281.977,129.722c2.467-3.61,3.911-7.974,3.911-12.676c0-12.426-10.074-22.5-22.5-22.5c-12.426,0-22.5,10.074-22.5,22.5    c0,12.426,10.074,22.5,22.5,22.5c2.746,0,5.377-0.493,7.809-1.395C275.609,136.519,279.366,133.544,281.977,129.722z"/></g><g><path d="M149.431,300.047l12.622-2.137l-4.666-8.863l-26.165,4.022c1.374-1.58,2.549-3.358,3.57-4.941    c4.615-7.157,7.855-15.262,10.906-23.178c6.308-16.36,9.706-32.326,4.357-49.56c-10.188-32.827-42.96-56.471-71.861-72.101    c-0.723-0.391-3.262,0.214-2.476,1.354c11.072,16.045,27.879,44.689,8.179,60.071c-0.305-4.693,1.167-9.304-0.18-14.044    c-2.907-10.234-14.578-17.129-22.977-22.227c-0.604-0.367-3.03,0.075-2.587,1.146c4.992,12.035,8.685,26.253,3.416,38.818    c-2.539,6.057-7.781,9.79-12.586,13.92c-4.54,3.902-8.762,8.259-11.406,13.686c-3.972,8.149-0.163,18.53,2.8,26.355    c3.959,10.456,9.886,20.298,17.538,28.478l-5.92,2.223l-27.359-4.272l-4.221,9.113l12.882,2.181l-4.224,1.586L0,302.648    l0.158,10.736l13.125-0.439l1.279,7.691l22.61-8.49l6.602-0.221l2.007,11.557l35.44-10.817l58.834,11.382l3.979-11.942    l1.264,0.042l22.61,8.49l1.279-7.69l13.123,0.438l0.158-10.736l-28.747-0.961L149.431,300.047z M99.438,254.263    c7.285-9.564,10.777-26.412,9.41-37.797c22.922,23.832,16.496,66.107,3.289,72.33c0,0-10.75,7.75-21.5,7.75    c-30.75,0-20.344-43.953-14.879-50.328C77.123,258.058,90.785,265.646,99.438,254.263z"/></g></g><text x="0" y="339.047" fill="#000000" font-size="5px" font-weight="bold" font-family="'Helvetica Neue', Helvetica, Arial-Unicode, Arial, Sans-serif">Created by Gan Khoon Lay</text><text x="0" y="344.047" fill="#000000" font-size="5px" font-weight="bold" font-family="'Helvetica Neue', Helvetica, Arial-Unicode, Arial, Sans-serif">from the Noun Project</text></svg>